<?xml version="1.0"?>
<svg xmlns="http://www.w3.org/2000/svg" xmlns:xlink="http://www.w3.org/1999/xlink" xmlns:svgjs="http://svgjs.com/svgjs" version="1.1" width="512" height="512" x="0" y="0" viewBox="0 0 64 64" style="enable-background:new 0 0 512 512" xml:space="preserve"><g><g xmlns="http://www.w3.org/2000/svg" id="Coding-Programming-Monitor-Software-Computer"><path d="m60 46h-1v-35a3.009 3.009 0 0 0 -3-3h-48a3.009 3.009 0 0 0 -3 3v35h-1a2.006 2.006 0 0 0 -2 2v3a5 5 0 0 0 5 5h50a5 5 0 0 0 5-5v-3a2.006 2.006 0 0 0 -2-2zm-53-35a1 1 0 0 1 1-1h48a1 1 0 0 1 1 1v35h-2v-33a1 1 0 0 0 -1-1h-44a1 1 0 0 0 -1 1v33h-2zm4 35v-32h42v32zm25 2v2h-8v-2zm24 3a3.009 3.009 0 0 1 -3 3h-50a3.009 3.009 0 0 1 -3-3v-3h22v2a2.006 2.006 0 0 0 2 2h8a2.006 2.006 0 0 0 2-2v-2h22z" fill="#536dfe" data-original="#000000" style=""/><path d="m19.414 24 2.293-2.293-1.414-1.414-3 3a1 1 0 0 0 0 1.414l3 3 1.414-1.414z" fill="#536dfe" data-original="#000000" style=""/><path d="m29.707 27.707 3-3a1 1 0 0 0 0-1.414l-3-3-1.414 1.414 2.293 2.293-2.293 2.293z" fill="#536dfe" data-original="#000000" style=""/><path d="m20.877 23h8.246v1.999h-8.246z" transform="matrix(.243 -.97 .97 .243 -4.351 42.426)" fill="#536dfe" data-original="#000000" style=""/><path d="m35 26h10v2h-10z" fill="#536dfe" data-original="#000000" style=""/><path d="m35 22h2v2h-2z" fill="#536dfe" data-original="#000000" style=""/><path d="m39 22h6v2h-6z" fill="#536dfe" data-original="#000000" style=""/><path d="m33 30h12v2h-12z" fill="#536dfe" data-original="#000000" style=""/><path d="m25 30h6v2h-6z" fill="#536dfe" data-original="#000000" style=""/><path d="m21 30h2v2h-2z" fill="#536dfe" data-original="#000000" style=""/><path d="m21 34h14v2h-14z" fill="#536dfe" data-original="#000000" style=""/><path d="m37 34h4v2h-4z" fill="#536dfe" data-original="#000000" style=""/><path d="m43 34h2v2h-2z" fill="#536dfe" data-original="#000000" style=""/><path d="m21 38h24v2h-24z" fill="#536dfe" data-original="#000000" style=""/></g></g></svg>
