<svg xmlns="http://www.w3.org/2000/svg" xmlns:xlink="http://www.w3.org/1999/xlink" width="207" height="227">
    <defs>
        <linearGradient id="prefix__a" x1="53.398%" x2="50%" y1="2.389%" y2="100%">
            <stop offset="0%" stop-color="#C1C8ED" />
            <stop offset="100%" stop-color="#FFF" />
        </linearGradient>
        <linearGradient id="prefix__b" x1="43.564%" x2="54.856%" y1="58.984%" y2="17.366%">
            <stop offset="0%" stop-color="#865EE8" />
            <stop offset="100%" stop-color="#371C81" />
        </linearGradient>
        <linearGradient id="prefix__c" x1="0%" x2="100%" y1="50%" y2="50%">
            <stop offset="0%" stop-color="#BBA1FA" />
            <stop offset="100%" stop-color="#6536E2" />
        </linearGradient>
        <linearGradient id="prefix__e" x1="0%" x2="100%" y1="50%" y2="50%">
            <stop offset="0%" stop-color="#EAE2FF" />
            <stop offset="100%" stop-color="#BBA1FF" />
        </linearGradient>
        <linearGradient id="prefix__f" x1="23.328%" x2="84.223%" y1="79.376%" y2="23.212%">
            <stop offset="0%" stop-color="#896BEB" />
            <stop offset="100%" stop-color="#2E097C" />
        </linearGradient>
        <linearGradient id="prefix__g" x1="60.654%" x2="38.381%" y1="37.776%" y2="59.802%">
            <stop offset="0%" stop-color="#C5C3D7" />
            <stop offset="100%" stop-color="#FFF" />
        </linearGradient>
        <linearGradient id="prefix__h" x1="-4.469%" x2="100%" y1="88.884%" y2="50%">
            <stop offset="0%" stop-color="#BBA1FA" />
            <stop offset="100%" stop-color="#6536E2" />
        </linearGradient>
        <linearGradient id="prefix__i" x1="0%" x2="100%" y1="50%" y2="50%">
            <stop offset="0%" stop-color="#865EE8" />
            <stop offset="100%" stop-color="#6536E2" />
        </linearGradient>
        <linearGradient id="prefix__j" x1="23.345%" x2="70.923%" y1="89.802%" y2="18.982%">
            <stop offset="0%" stop-color="#BBA1FA" />
            <stop offset="100%" stop-color="#5C2DDA" />
        </linearGradient>
        <linearGradient id="prefix__k" x1="46.07%" x2="66.454%" y1="62.303%" y2="34.226%">
            <stop offset="0%" stop-color="#3CF8C2" />
            <stop offset="100%" stop-color="#00B08B" />
        </linearGradient>
        <linearGradient id="prefix__l" x1="37.57%" x2="66.783%" y1="85.232%" y2="8.106%">
            <stop offset="0%" stop-color="#79EACB" />
            <stop offset="100%" stop-color="#38DDAA" />
        </linearGradient>
        <linearGradient id="prefix__n" x1="0%" x2="100%" y1="50%" y2="50%">
            <stop offset="0%" stop-color="#EAE2FF" />
            <stop offset="100%" stop-color="#BBA1FF" />
        </linearGradient>
        <linearGradient id="prefix__p" x1="0%" x2="100%" y1="50%" y2="50%">
            <stop offset="0%" stop-color="#EAE2FF" />
            <stop offset="100%" stop-color="#BBA1FF" />
        </linearGradient>
        <linearGradient id="prefix__q" x1="46.165%" x2="50.823%" y1="10.497%" y2="100%">
            <stop offset="0%" stop-color="#8369D9" />
            <stop offset="100%" stop-color="#653CBB" />
            <stop offset="100%" stop-color="#633BBA" />
        </linearGradient>
        <linearGradient id="prefix__r" x1="41.689%" x2="50%" y1="5.03%" y2="91.193%">
            <stop offset="0%" stop-color="#F9F9FF" />
            <stop offset="100%" stop-color="#B9B9D1" />
        </linearGradient>
        <linearGradient id="prefix__s" x1="56.674%" x2="44.969%" y1="64.336%" y2="69.579%">
            <stop offset="0%" stop-color="#9D9DBB" />
            <stop offset="100%" stop-color="#B9B9D1" />
        </linearGradient>
        <linearGradient id="prefix__t" x1="28.096%" x2="50%" y1="19.455%" y2="77.98%">
            <stop offset="0%" stop-color="#F9F9FF" />
            <stop offset="100%" stop-color="#B9B9D1" />
        </linearGradient>
        <linearGradient id="prefix__u" x1="0%" x2="100%" y1="50%" y2="50%">
            <stop offset="0%" stop-color="#EAE2FF" />
            <stop offset="100%" stop-color="#BBA1FF" />
        </linearGradient>
        <linearGradient id="prefix__v" x1="0%" x2="100%" y1="50%" y2="50%">
            <stop offset="0%" stop-color="#EAE2FF" />
            <stop offset="100%" stop-color="#BBA1FF" />
        </linearGradient>
        <linearGradient id="prefix__w" x1="58.816%" x2="50%" y1="6.459%" y2="100%">
            <stop offset="0%" stop-color="#31CFA9" />
            <stop offset="100%" stop-color="#C3FFEF" />
        </linearGradient>
        <linearGradient id="prefix__x" x1="50%" x2="50%" y1="27.527%" y2="100%">
            <stop offset="0%" stop-color="#20BD98" />
            <stop offset="100%" stop-color="#E7FFF9" />
        </linearGradient>
        <linearGradient id="prefix__y" x1="-57.754%" x2="-122.094%" y1="41.348%" y2="57.298%">
            <stop offset="0%" stop-color="#31CFA9" />
            <stop offset="100%" stop-color="#C3FFEF" />
        </linearGradient>
        <linearGradient id="prefix__B" x1="37.935%" x2="66.782%" y1="74.495%" y2="50%">
            <stop offset="0%" stop-color="#865EE8" />
            <stop offset="100%" stop-color="#6536E2" />
        </linearGradient>
        <linearGradient id="prefix__C" x1="44.966%" x2="61.827%" y1="100%" y2="20.252%">
            <stop offset="0%" stop-color="#3CF8C2" />
            <stop offset="100%" stop-color="#00B08B" />
        </linearGradient>
        <linearGradient id="prefix__D" x1="19.967%" x2="98%" y1="100%" y2="26.81%">
            <stop offset="0%" stop-color="#BBA1FA" />
            <stop offset="100%" stop-color="#6536E2" />
        </linearGradient>
        <linearGradient id="prefix__E" x1="19.967%" x2="98%" y1="100%" y2="26.81%">
            <stop offset="0%" stop-color="#BBA1FA" />
            <stop offset="100%" stop-color="#6536E2" />
        </linearGradient>
        <linearGradient id="prefix__F" x1="19.932%" x2="98.055%" y1="100%" y2="26.81%">
            <stop offset="0%" stop-color="#BBA1FA" />
            <stop offset="100%" stop-color="#6536E2" />
        </linearGradient>
        <linearGradient id="prefix__G" x1="0%" x2="100%" y1="50%" y2="50%">
            <stop offset="0%" stop-color="#BBA1FA" />
            <stop offset="100%" stop-color="#6536E2" />
        </linearGradient>
        <linearGradient id="prefix__H" x1="0%" x2="100%" y1="50%" y2="50%">
            <stop offset="0%" stop-color="#BBA1FA" />
            <stop offset="100%" stop-color="#6536E2" />
        </linearGradient>
        <path id="prefix__m" d="M.021.225h12.338v5.572H.021z" />
        <path id="prefix__z" d="M.147.157h1.32v1.324H.147z" />
        <filter id="prefix__d" width="1372.6%" height="347%" x="-636.3%" y="-123.5%" filterUnits="objectBoundingBox">
            <feGaussianBlur in="SourceGraphic" stdDeviation="38.1757408 0" />
        </filter>
    </defs>
    <g fill="none" fill-rule="evenodd">
        <path fill="#A2A2AF"
            d="M67.921 58.872c1.187-1.406 1.68-3.355 1.079-4.384-.442-.719-1.3-.786-2.188-.272a4.28 4.28 0 00-1.079.92c-1.187 1.401-1.66 3.343-1.067 4.381.413.74 1.273.807 2.162.291.37-.213.744-.528 1.093-.936m3.92-3.28l-1.396.886a9.28 9.28 0 01-.416 1.177l.778.875c-.188.409-.391.75-.668 1.162l-1.162-.196c-.1.127-.244.313-.4.51a6.461 6.461 0 01-.417.426l-.051 1.63c-.261.23-.565.493-.82.64-.03.018-.062.035-.091.049l-.52-1.175a5.483 5.483 0 01-.903.353l-.875 1.755c-.304.057-.59.056-.868.011l.407-1.775c-.227-.104-.472-.189-.67-.387l-1.354 1.234a.933.933 0 00-.197-.356 3.015 3.015 0 01-.228-.373l1.08-1.604c-.09-.3-.129-.662-.108-1.034l-1.309.224c-.023-.359.08-.795.134-1.173l1.4-.875c.092-.378.228-.782.412-1.18l-.766-.894c.214-.428.41-.776.653-1.161l1.162.195c.118-.133.273-.342.403-.503.122-.122.278-.289.44-.455l.051-1.63c.266-.227.618-.512.952-.726l.452 1.234c.345-.2.6-.266.908-.341l.87-1.766c.305-.057.598-.064.869-.011l-.407 1.775c.268.068.509.172.669.39l1.366-1.23c.092.065.164.208.212.355.064.126.138.254.202.371l-1.075 1.607c.09.315.124.663.147.988l1.265-.173c.03.355-.028.735-.13 1.171" />
        <path fill="#D8D8E3"
            d="M78.985 60.841c1.164-1.376 1.649-3.295 1.06-4.305-.437-.704-1.28-.771-2.15-.266a4.206 4.206 0 00-1.058.9c-1.165 1.38-1.634 3.287-1.049 4.308.406.725 1.247.79 2.12.286.363-.211.732-.52 1.077-.923m3.85-3.218l-1.375.873a9.039 9.039 0 01-.405 1.154l.763.858a7.925 7.925 0 01-.657 1.143l-1.14-.196c-.1.127-.24.31-.395.503-.115.135-.24.255-.407.416l-.051 1.603c-.253.222-.552.478-.8.621-.032.018-.062.035-.093.05l-.511-1.15c-.274.142-.578.25-.89.345l-.855 1.727c-.3.054-.58.053-.854.01l.4-1.744c-.224-.102-.464-.189-.654-.383l-1.333 1.212a.948.948 0 00-.194-.349 2.977 2.977 0 01-.223-.367l1.056-1.57a3.207 3.207 0 01-.103-1.018l-1.283.217c-.023-.35.076-.78.13-1.15l1.375-.855c.091-.374.224-.767.404-1.162l-.751-.878c.206-.419.402-.763.638-1.14l1.14.195c.118-.132.273-.337.399-.496.119-.12.274-.282.433-.447l.05-1.604a8.98 8.98 0 01.934-.711l.445 1.21c.337-.196.59-.257.89-.333l.851-1.733c.3-.055.59-.064.854-.011l-.4 1.745c.268.063.506.161.658.38l1.34-1.203c.097.06.164.2.213.343.059.124.134.252.194.367l-1.054 1.576c.09.312.125.651.144.973l1.246-.174c.027.352-.03.724-.13 1.153m-15.51 17.973c1.606-1.47 2.52-3.97 2.048-5.557-.391-1.314-1.615-1.623-2.936-.858-.274.16-.554.366-.831.619-1.643 1.499-2.567 4.006-2.096 5.593.39 1.313 1.615 1.618 2.956.842.283-.164.572-.377.86-.64zm4.012-6.225c.053.44.029.9-.033 1.392l1.492.189a12.915 12.915 0 01-.389 1.534l-1.727.696c-.229.509-.46 1.007-.73 1.475l.697 1.47a18.51 18.51 0 01-1.016 1.384l-1.256-.693c-.17.184-.351.354-.533.519-.196.178-.403.366-.592.51l-.394 2.2-.252.145a8.48 8.48 0 01-.941.49l-.299-1.838c-.389.136-.76.188-1.09.191l-1.333 2.099a2.918 2.918 0 01-.966-.297l.78-2.26a3.71 3.71 0 01-.655-.768l-1.748 1.193c-.063-.19-.13-.365-.187-.55-.056-.19-.097-.385-.15-.581l1.557-1.834a9.766 9.766 0 01.022-1.386l-1.507-.17a12.26 12.26 0 01.415-1.558l1.746-.712c.191-.475.427-.98.712-1.46l-.684-1.482c.3-.469.643-.912.98-1.346l1.252.686c.178-.18.38-.37.577-.548.185-.171.367-.332.548-.475l.398-2.198c.156-.097.305-.187.45-.272.263-.151.514-.284.777-.4l.287 1.848c.374-.123.741-.169 1.109-.206l1.315-2.083c.334.059.65.17.939.32l-.766 2.247c.265.199.495.433.667.757l1.744-1.186c.086.168.153.343.21.529.056.19.097.384.127.606l-1.553 1.823z" />
        <path fill="#002D3D" d="M130.247 156.792l-3.887-2.266-.283-100.172 3.887 2.267z" />
        <path fill="#000"
            d="M110.963 60.025c.576-.333 1.044-.065 1.046.601v.078c.002.663-.463 1.471-1.039 1.805l-13.638 7.898c-.578.336-1.046.068-1.048-.595v-.078c-.002-.666.463-1.475 1.041-1.81l13.638-7.899z" />
        <path fill="url(#prefix__a)"
            d="M114.814 57.795c-.558.323-1.008 1.14-1.006 1.826.002.687.455.98 1.013.657.56-.324 1.01-1.141 1.009-1.828-.002-.686-.455-.98-1.016-.655zm-18.53 11.939v.078c.002.663.47.93 1.048.596l13.639-7.9c.575-.333 1.04-1.141 1.038-1.804v-.078c-.002-.666-.47-.934-1.046-.6l-13.638 7.899c-.578.334-1.043 1.142-1.041 1.809zm33.963 87.058l-.283-100.171-47.782 27.675.283 100.172 47.782-27.676zM128.99 44.505c1.553-.9 2.819-.175 2.824 1.614l.329 116.249c.005 1.793-1.253 3.976-2.806 4.875l-45.9 26.586c-1.556.9-2.819.178-2.824-1.615l-.329-116.249c-.005-1.79 1.25-3.973 2.806-4.874l45.9-26.586z" />
        <path fill="#335464"
            d="M114.814 57.795c.56-.325 1.014-.031 1.016.655.002.687-.448 1.504-1.01 1.828-.557.323-1.01.03-1.012-.657-.002-.686.449-1.503 1.006-1.826" />
        <path fill="#1E1536" d="M129.964 56.621l.283 100.172-47.782 27.675-.282-100.172z" />
        <path fill="url(#prefix__b)"
            d="M127.104 42.043c-.512-.299-1.22-.257-2.002.195L79.2 68.824c-1.555.901-2.81 3.085-2.806 4.874l.33 116.25c.002.89.315 1.517.82 1.811l3.887 2.267c-.505-.295-.818-.921-.82-1.812l-.329-116.249c-.005-1.79 1.25-3.974 2.806-4.874l45.9-26.586c.782-.453 1.49-.494 2.003-.196l-3.888-2.266z" />
        <path fill="#512E9E" d="M93.352 154.584l4.002 3.468v.097l-7.971 4.616-.001-.096z" />
        <path fill="#FFF"
            d="M95.564 102.08l-3.923 5.897c-.115.174-.256.31-.398.391-.142.082-.284.11-.4.071l-3.943-1.342 8.664-5.018z" />
        <path fill="#37118A" d="M110.589 139.579l4.015 8.102.001.476-7.974 4.619-.002-.475z" />
        <path fill="#2C0979" d="M119.176 122.317l4.051 19.443.003 1.401-7.974 4.619-.004-1.402z" />
        <path fill="#512E9E" d="M101.951 140.24l4.026 12.11.003.803-7.972 4.617-.002-.813z" />
        <path fill="url(#prefix__c)"
            d="M128.269 140.996l-.002-.752-4.385 2.54-.075-26.437-.651.378.07 25.035-4.05-19.443-3.924 24.06-.07-25.033-.652.377.073 25.96-4.015-8.102-3.959 12.722-.073-25.961-.651.377.072 25.633-4.027-12.11-3.944 16.717-.073-25.623-.654.379.075 26.34-4.002-3.469-3.97 8.085-.074-26.34-.651.378.074 26.436-4.384 2.54.002.75 4.385-2.539.024 8.556.651-.377-.024-8.556 7.97-4.617.025 8.556.654-.38-.024-8.555 7.971-4.617.025 8.556.651-.377-.024-8.557 7.974-4.618.024 8.556.651-.377-.024-8.556 7.974-4.619.025 8.557.651-.378-.024-8.556 4.385-2.54zM82.3 126.116l47.782-27.676.162 58.433-47.782 27.675-.162-58.433z" />
        <path fill="#659DB5"
            d="M121.698 91.944c0 .243-.11.525-.277.747l.27 1.725-1.225.708.26-2.03c-.168-.028-.28-.18-.281-.424-.001-.386.277-.862.626-1.064.346-.2.626-.048.627.338" />
        <path fill="#FFF"
            d="M121.69 94.415l-.269-1.724c.167-.222.278-.503.277-.747-.001-.385-.28-.539-.627-.338-.35.202-.627.678-.626 1.064 0 .244.113.395.28.424l-.259 2.03 1.224-.709zm.868-4.911l-.006-2.138c-.002-.917-.673-1.277-1.495-.801-.825.478-1.492 1.613-1.49 2.53l.007 2.138 2.984-1.73zm.458-.265l.578-.335.016 5.64-5.056 2.928-.016-5.64.578-.334-.006-2.138c-.004-1.198.868-2.679 1.945-3.303 1.075-.622 1.952-.154 1.955 1.044l.006 2.138z" />
        <path fill="#659DB5"
            d="M123.61 94.544l-.016-5.64-.578.335-.006-2.139c-.003-1.197-.88-1.665-1.954-1.043-1.078.624-1.95 2.105-1.947 3.303l.007 2.138-.578.335.016 5.64 5.056-2.93zm-8.95-6.938l12.775-7.4.04 14.251-12.775 7.399-.04-14.25z" />
        <path fill="#659DB5"
            d="M121.057 86.565c.822-.476 1.493-.116 1.496.801l.005 2.138-2.984 1.729-.006-2.138c-.003-.917.664-2.053 1.489-2.53" />
        <path fill="#6B3CE6"
            d="M107.396 103.058c.263-.65.46-1.419.593-2.215l1.491-.863a9.166 9.166 0 01-2.084 3.078m-1.229.935c-.382.221-.871-.258-1.148-1.43l2.283-1.322c-.266 1.486-.75 2.53-1.135 2.752m2.013-5.497a11.898 11.898 0 00-.09-1.429l1.703-.986c.153.376.237.825.239 1.343 0 .52-.08 1.066-.23 1.614l-1.703.986c.054-.516.082-1.034.08-1.528m-5.335 5.327l1.491-.863c.137.639.339 1.176.604 1.52-.881.182-1.623-.06-2.095-.657m4.529-8.963c.878-.18 1.62.062 2.094.657l-1.49.864c-.137-.642-.339-1.177-.604-1.52m-2.568 5.59c-.002-.535.03-1.047.083-1.53l2.527-1.463c.054.42.091.893.092 1.428.002.537-.032 1.052-.083 1.53l-2.527 1.463c-.057-.414-.091-.89-.092-1.428m1.337-5.105c.385-.223.874.26 1.148 1.432l-2.283 1.323c.268-1.487.754-2.535 1.135-2.755m-2.012 5.496c0 .494.032.978.091 1.428l-1.705.987c-.15-.373-.234-.823-.236-1.344a6.219 6.219 0 01.228-1.613l1.705-.987a13.58 13.58 0 00-.083 1.53" />
        <path fill="#6B3CE6"
            d="M106.169 104.744c2.509-1.453 4.543-4.911 4.535-7.71-.008-2.797-2.055-3.893-4.564-2.44-2.506 1.452-4.542 4.912-4.535 7.71.008 2.798 2.057 3.892 4.564 2.44zm-6.421-8.5l12.776-7.4.04 14.25-12.776 7.4-.04-14.25z" />
        <path fill="#FFF"
            d="M95.782 102.39l.018 6.303c.001.386-.277.858-.623 1.06l-7.848 4.544c-.346.2-.626.051-.627-.335l-.018-6.302 4.15 1.622c.118.047.264.02.411-.065.147-.085.294-.228.41-.411l4.127-6.416z" />
        <path fill="#6B3CE6"
            d="M95.564 102.08l-8.664 5.017 3.943 1.342c.116.04.258.011.4-.07.142-.082.283-.218.398-.392l3.923-5.898zm.236 6.613l-.018-6.303-4.127 6.416a1.25 1.25 0 01-.41.41c-.147.085-.294.113-.411.066l-4.15-1.623.018 6.303c.001.386.28.536.627.335l7.848-4.545c.346-.2.624-.673.623-1.06zm-10.967-3.81l12.779-7.402.04 14.25-12.778 7.401-.04-14.25z" />
        <path fill="#311A64"
            d="M127.476 94.457l-.04-14.25-12.776 7.4.04 14.25 12.776-7.4zm-14.912 8.637l-.04-14.25-12.776 7.399.04 14.25 12.776-7.4zm-14.912 8.637l-.04-14.25-12.779 7.401.04 14.25 12.779-7.401zM82.21 94.019l47.782-27.675.09 32.096-47.781 27.675-.091-32.096z" />
        <path fill="#6B3CE6" d="M104.323 98.497c.13-.797.33-1.564.593-2.214a9.084 9.084 0 00-2.084 3.078l1.49-.864z" />
        <path fill="#FFF"
            d="M109.467 95.517c-.474-.596-1.216-.837-2.094-.657.265.344.467.879.603 1.52l1.491-.863m-2.071 7.54a9.152 9.152 0 002.084-3.077l-1.491.863c-.133.796-.33 1.564-.593 2.215m-4.552.765c.472.597 1.214.84 2.095.657-.265-.344-.466-.881-.604-1.52l-1.49.863m2.071-7.54a9.084 9.084 0 00-2.084 3.078l1.49-.864c.13-.797.331-1.564.594-2.214m1.251 7.71c.384-.222.87-1.266 1.136-2.752l-2.284 1.323c.277 1.17.766 1.65 1.148 1.429m-.025-8.647c-.381.22-.866 1.268-1.135 2.755l2.283-1.322c-.274-1.173-.763-1.656-1.148-1.433m-3.861 6.567c.001.521.085.97.235 1.344l1.706-.987c-.06-.45-.091-.934-.093-1.428 0-.494.027-1.012.084-1.53l-1.705.988a6.168 6.168 0 00-.227 1.613m5.818-1.889l1.702-.986a6.025 6.025 0 00.23-1.614 3.55 3.55 0 00-.238-1.343l-1.703.986c.057.452.088.936.09 1.43.001.494-.027 1.011-.081 1.527m-.591-1.138a11.44 11.44 0 00-.093-1.427l-2.526 1.463c-.055.482-.086.995-.084 1.53.001.537.035 1.012.092 1.427l2.527-1.464c.051-.477.085-.991.084-1.53m-1.368-4.29c2.51-1.454 4.556-.358 4.564 2.44.008 2.797-2.026 6.256-4.535 7.71-2.507 1.45-4.556.357-4.564-2.44-.007-2.799 2.029-6.259 4.535-7.71M89.308 136.33l-.651.377.074 26.436.652-.378v-.096zm33.922 6.831l.652-.377-.075-26.436-.651.377.07 25.035zm-16.6 9.14l-.074-25.961-.652.377.073 25.633.002.803.652-.377zm7.975-4.144l.652-.377-.004-1.402-.071-25.034-.652.377.074 25.961z" />
        <path fill="#FFF"
            d="M128.269 140.995l-.002-.751-4.385 2.54-.652.377-7.974 4.619-.651.377-7.974 4.619-.651.377-7.972 4.617-.654.379-7.971 4.617-.652.377-4.384 2.54.002.751 4.385-2.54.024 8.556.651-.377-.024-8.556-.194.112.194-.112 7.971-4.617.024 8.556.654-.379-.024-8.556 7.971-4.617.025 8.556.651-.377-.024-8.557 7.974-4.618.024 8.556.651-.377-.024-8.556 7.974-4.619.025 8.556.651-.377-.024-8.556z" />
        <path fill="#FFF" d="M97.354 158.149l.654-.379-.002-.813-.072-25.623-.655.379.075 26.339z" />
        <path fill="#2D1957" d="M114.29 55.327l17.999-10.785-.072 82.891-17.927 9.848z" filter="url(#prefix__d)"
            opacity=".837" />
        <path fill="url(#prefix__e)"
            d="M72.003 107.908c.795-.46 1.443-.09 1.445.827.003.92-.64 2.038-1.435 2.499-.11.063-.212.105-.312.14l-2.678 6.328c.177.176.284.45.285.819.003.92-.641 2.038-1.437 2.498-.795.461-1.443.091-1.445-.83-.001-.368.106-.772.285-1.154l-2.673-3.223a2.04 2.04 0 01-.305.217 1.676 1.676 0 01-.311.14l-2.681 6.33c.177.176.287.448.288.817.002.92-.641 2.038-1.437 2.499-.798.462-1.446.092-1.449-.828-.002-.917.642-2.035 1.44-2.498.106-.061.211-.105.311-.14l2.678-6.328c-.177-.175-.286-.448-.287-.82-.003-.917.64-2.035 1.439-2.497.795-.461 1.443-.09 1.445.826.001.372-.106.777-.284 1.158l2.672 3.223c.1-.085.2-.156.305-.217.106-.06.211-.105.311-.14l2.678-6.329c-.177-.175-.283-.449-.284-.82-.003-.918.64-2.036 1.436-2.497" />
        <path fill="#8354FF"
            d="M81 80.79c3.106-1.799 5.63-.353 5.64 3.226l.044 15.84-5.856-1.267-33.231 19.247c-3.105 1.799-5.631.354-5.641-3.225l-.014-4.706c-.01-3.58 2.5-7.94 5.605-9.739L81 80.79z"
            opacity=".311" />
        <path fill="#FFF" stroke="#FFF" stroke-width="1.421"
            d="M130.739 58.035c1.738-1.007 3.156-.25 3.161 1.69.004 1.549-.89 3.378-2.136 4.57 1.937-.726 3.52-.133 4.208 1.472-1.4 2.136-3.215 3.988-5.197 5.136-1.982 1.148-3.8 1.4-5.209.891.677-2.397 2.252-4.818 4.186-6.334-1.249.253-2.15-.536-2.155-2.085-.006-1.94 1.403-4.333 3.142-5.34" />
        <path fill="#37118A"
            d="M130.724 52.882c4.462-2.584 8.09-.644 8.103 4.334 0 .262-.009.527-.027.795-.181 2.555-1.24 5.34-2.828 7.756-.689-1.605-2.272-2.199-4.208-1.473 1.245-1.19 2.14-3.02 2.136-4.57-.005-1.94-1.423-2.696-3.161-1.689-1.74 1.007-3.148 3.4-3.142 5.34.005 1.55.907 2.338 2.155 2.085-1.934 1.516-3.509 3.937-4.186 6.335-1.596-.573-2.667-2.124-2.862-4.461a9.84 9.84 0 01-.032-.761c-.014-4.978 3.59-11.107 8.052-13.69" />
        <path fill="url(#prefix__f)"
            d="M161.967 13.774l.087 30.768L138.8 58.01c.019-.268.028-.533.027-.795-.014-4.978-3.641-6.918-8.103-4.334-4.462 2.584-8.066 8.713-8.052 13.69 0 .263.012.517.032.762l-5.661 3.278-.087-30.768 45.01-26.07z"
            opacity=".806" />
        <path fill="url(#prefix__g)"
            d="M155.825 92.307l-.006-2.145-32.305 18.711.006 2.145 32.305-18.711m.015 5.143l-.006-2.144-32.305 18.71.006 2.145 32.305-18.71m.015 5.143l-.006-2.145-32.306 18.711.006 2.145 32.306-18.711M138.8 58.01l23.254-13.468.173 61.294-45.01 26.07-.174-61.294 5.66-3.279c.195 2.339 1.267 3.889 2.863 4.461 1.408.51 3.227.257 5.209-.89 1.982-1.149 3.796-3 5.197-5.137 1.587-2.416 2.647-5.2 2.828-7.757"
            opacity=".94" />
        <path fill="url(#prefix__h)"
            d="M155.82 90.162l.006 2.145-32.306 18.711-.006-2.144zm.014 5.144l.006 2.144-32.305 18.712-.006-2.145zm.015 5.143l.006 2.145-32.306 18.711-.006-2.145z" />
        <path fill="#046" d="M144.936 80.718v-.002.002m-.007-.033l.007.031-.002-.008-.005-.023" />
        <path fill="#A2A2AF"
            d="M150.674 73.863c.109-1.75.7-3.624 1.612-5.35-.91 1.725-1.498 3.599-1.612 5.35m6.476-10.76c.027-.016.055-.033.083-.048.027-.017.055-.033 1.36-.626 1.402-.473 2.643-.336 3.567.319v-7.942c-.09.006-.178.006-.27.016l-.14.016-.138.017-.141.02-.14.024-.088.015-.054.01-.087.016-.053.011-.085.018-.06.012-.08.018-.063.014-.079.02-.066.015-.079.02-.064.017-.081.02-.065.019-.078.022-.068.02-.079.023-.068.021-.077.024-.071.023-.075.024-.076.025-.071.025-.076.026-.074.027-.076.027-.074.028-.073.028-.078.03-.074.03-.076.03-.076.03-.074.031-.08.034-.072.031-.078.034-.075.033-.081.037-.07.033-.082.037-.073.035-.082.04-.071.035-.081.04-.075.037-.085.044-.068.036c-.034.016-.067.034-.1.052l-.055.029-.157.085-.157.088-.157.09-.156.09-.078.048-.079.047-.074.046-.082.05-.072.046-.084.053-.07.044c-.028.02-.056.037-.084.055l-.075.05-.08.052-.074.05-.08.053-.078.054-.075.052-.077.054-.075.053-.082.059-.069.05-.084.06-.067.05a1.92 1.92 0 00-.086.064l-.064.048-.088.066-.061.047-.09.07-.06.046-.09.07-.058.048c-.032.024-.062.049-.092.074l-.056.044-.146.12-.145.122-.146.123-.074.064-.068.059-.141.124-.141.126-.14.128-.14.128-.1.094-.04.038c-.415.393-.817.812-1.212 1.242a24.9 24.9 0 01-.001 0h.001c-.1.107-.198.216-.296.325h.001a27.86 27.86 0 00-1.149 1.379l-.202.266-.001.001-.13.175a27.717 27.717 0 00-1.427 2.086c-.098.156-.197.312-.291.47-.196.327-.383.66-.567.994l-.068.122-.168.312c-.203.386-.399.775-.585 1.168-.073.154-.14.31-.209.463a28.6 28.6 0 00-.935 2.335c-.052.15-.106.299-.155.45-.137.411-.262.825-.375 1.238-.183.666-.34 1.332-.461 1.995l-.034.19-.033.195-.021.135-.009.057c-.009.052-.016.104-.03.196l-.026.189-.025.193-.023.185-.021.192-.02.19-.011.125-.006.068-.01.116-.005.072-.009.113-.005.075-.007.11-.004.07-.006.115-.004.076-.005.106-.003.102-.003.08-.003.111-.001.073-.002.111v.072l-.001.181.001.177.002.089.001.088.003.087v.003-.002.002l.003.084.003.092.004.082.003.066.001.004v.011l.005.091.004.069.002.02.005.08.007.09.006.077.008.092.006.074.01.089c.001.026.004.05.007.077l.01.09v.002l.007.068.012.096.009.067.013.097.009.061.014.096.009.06.002.013.015.097v-.004l.008.05c.005.033.01.065.017.098l.01.055c.006.038.014.075.021.113l.007.039.023.112.007.037.002.007-.002-.007.027.122.005.026.029.124.005.022.035.144.036.141a10.272 10.272 0 00.285.885c.046.125.095.248.146.368.041.1.083.197.127.293.055.117.113.231.172.343.047.09.094.18.144.268.063.11.13.215.197.32.044.07.089.139.135.206.036.052.075.102.112.153l.136.18c.05.063.099.128.15.19.037.043.076.082.113.124a7 7 0 00.164.177l.09.093.095.096c.025.024.051.046.077.069.072.067.147.132.223.195.023.02.044.04.068.059.035.03.07.06.107.088.014.01.03.02.043.031.116.089.235.172.357.251.027.018.053.037.08.054l.03.02c.106.066.216.125.327.184l.048.027c.056.029.11.06.167.087.13.063.266.12.402.173.058.023.114.048.173.07.159.057.322.105.488.15.032.008.064.02.098.028.052.013.106.021.159.033.148.033.297.065.45.088.08.012.163.018.244.028.135.015.27.03.408.038.09.005.184.005.276.007.133.002.266.004.402 0 .097-.004.196-.01.295-.018a8.325 8.325 0 001.133-.155 9.36 9.36 0 00.75-.182c.104-.03.207-.057.312-.09l.004-.002c.153-.048.308-.103.462-.159.089-.031.177-.061.266-.095l.081-.033c.158-.062.318-.131.478-.202.062-.027.125-.052.187-.081l.152-.071c.204-.097.41-.2.617-.31l.1-.053c.139-.076.277-.146.417-.228 1.729-1 3.374-2.369 4.866-3.978v-7.955c-1.197 2.226-2.922 4.196-4.849 5.324-1.717.781-3.858 1.077-4.917.36l.002-.005c-.958-.65-1.59-1.844-1.721-3.495l-.007-.095-.006-.098.001.027v-.027a5.608 5.608 0 01-.01-.247v-.015a1.177 1.177 0 01-.002-.077l-.001-.093c-.01-3.865 3.202-8.976 6.5-11.394"
            opacity=".609" />
        <path fill="#046" d="M150.357 74.85v-.014.014m-.003-.073v-.033.033" />
        <path fill="url(#prefix__i)"
            d="M150.293 83.161c.107.066.218.126.328.185l.048.027c.056.029.11.06.167.087.13.064.266.12.402.173.058.023.114.049.173.07.16.057.323.105.487.15.034.009.065.02.098.028.053.013.108.021.16.033.148.033.297.065.45.088.08.012.163.019.244.028.135.016.27.03.408.038.091.005.184.006.276.007.133.003.266.004.402 0a9.61 9.61 0 00.702-.055 11.31 11.31 0 00.726-.118c.104-.02.208-.043.314-.067.144-.034.29-.074.436-.115.103-.029.207-.057.312-.09l.005-.001a11.5 11.5 0 00.461-.16c.089-.031.177-.06.266-.095l.081-.033c.158-.062.318-.131.478-.201.062-.029.125-.053.187-.082l.153-.072c.204-.096.41-.199.616-.308l.1-.055-.019-6.593c-1.761.89-3.34.878-4.464.116l-4.026 6.996.03.02" />
        <path fill="url(#prefix__j)"
            d="M154.182 66.037c-.91 1.726-1.498 3.6-1.612 5.351.109-1.75.7-3.624 1.612-5.35M152.551 72.302v-.033.033m.003.073v-.014.014m-4.88 7.578c.041.098.083.196.127.291.055.118.113.232.172.345.047.09.094.18.144.267.063.11.13.215.197.32.045.07.089.14.135.206.036.052.075.102.112.153l.136.18c.05.063.099.128.15.189.037.043.076.084.113.125a7 7 0 00.164.177l.09.093.095.096c.025.024.051.046.077.069.073.068.147.132.223.196.023.019.044.039.068.058.035.029.07.06.107.088.014.01.03.02.043.032.116.087.235.171.357.25.027.018.053.037.08.054l4.026-6.996.003-.004c-.96-.65-1.59-1.844-1.722-3.495l-.007-.095-.006-.098.002.027v-.006l-.001-.008v-.013a5.623 5.623 0 01-.01-.248v-.014a1.177 1.177 0 01-.002-.077l-.001-.093c-.01-3.865 3.063-8.872 6.36-11.29 0 0 .635-.475 1.583-.778 2.824-.952 4.992.564 5.245 3.809l5.717-3.311-.003-.075c-.012-.28-.034-.553-.06-.82l-.014-.13c-.01-.087-.024-.168-.035-.253-.026-.19-.051-.38-.084-.564l-.013-.076c-.02-.107-.045-.208-.067-.312-.036-.17-.072-.338-.115-.5l-.007-.028a7.847 7.847 0 00-.097-.328 9.273 9.273 0 00-.148-.463c-.039-.11-.082-.216-.124-.322a8.403 8.403 0 00-.178-.42 8.113 8.113 0 00-.522-.955 7.364 7.364 0 00-.24-.348c-.06-.082-.12-.164-.184-.243a6.45 6.45 0 00-.273-.316c-.065-.071-.129-.143-.196-.21a6.505 6.505 0 00-.313-.288c-.067-.058-.132-.119-.2-.174a5.735 5.735 0 00-.367-.263c-.063-.044-.124-.09-.19-.132a6.035 6.035 0 00-.467-.258c-.04-.02-.076-.043-.115-.062-.038-.018-.077-.031-.116-.048a5.613 5.613 0 00-.513-.208c-.068-.024-.14-.04-.209-.062a6.015 6.015 0 00-.47-.128c-.086-.02-.174-.031-.262-.047-.15-.026-.297-.053-.45-.07-.1-.01-.203-.015-.305-.021a7.592 7.592 0 00-1.328.019l-.14.016-.138.018-.141.02-.14.023-.088.015-.054.01c-.029.006-.058.01-.087.017l-.053.01-.085.017-.06.014-.08.017-.063.014-.079.019-.066.016-.079.02-.064.016-.08.022-.066.018-.078.022-.068.02-.079.023-.068.02-.077.025-.071.023-.075.024-.076.026-.071.024-.076.027-.074.026-.076.028-.074.027-.073.028-.078.03-.074.029-.076.03-.076.031-.074.031-.08.034-.072.03-.078.036-.075.032-.081.037-.07.033-.082.038-.073.034-.082.04-.071.035-.081.04-.075.037-.085.044-.068.035-.1.052-.055.03-.157.085-.157.088-.157.09-.156.09-.077.047-.08.048-.074.046-.081.05-.073.046-.084.052-.07.046-.084.054-.075.049-.08.053-.074.05-.079.053-.08.055-.074.05a1.51 1.51 0 01-.077.055l-.075.053-.082.058-.069.05-.084.061-.067.05c-.03.021-.057.042-.086.064l-.064.048-.088.066-.061.047-.09.07-.06.047-.09.07-.058.047-.092.074-.056.044c-.03.026-.061.05-.146.12l-.145.121-.145.124-.075.064-.068.059-.141.124-.141.127c-.04.034-.077.07-.14.127l-.14.128-.1.094-.04.038c-.415.393-.817.812-1.212 1.242a25.966 25.966 0 01-.001 0h.001c-.1.107-.198.216-.296.325h.001a28.952 28.952 0 00-1.149 1.379l-.202.266-.001.001v-.001l-.13.176a26.422 26.422 0 00-.904 1.275c-.18.267-.353.538-.523.811-.098.157-.196.312-.291.47-.196.327-.383.66-.567.994l-.068.122c-.056.104-.113.208-.167.312-.204.386-.4.776-.586 1.169-.073.153-.14.308-.209.463a29.59 29.59 0 00-.593 1.407c-.12.308-.234.617-.342.927-.052.15-.106.3-.155.45-.136.412-.261.825-.375 1.238-.183.666-.34 1.332-.461 1.995l-.034.19-.033.195-.021.134-.009.058c-.009.052-.016.104-.03.196l-.026.19-.025.192-.023.185-.021.192-.02.19-.011.125-.006.067-.01.117-.005.071-.009.114-.005.075-.007.11-.004.069-.006.116-.004.076-.005.105-.003.103-.003.08-.003.111-.001.073-.002.111v.072l-.001.181.001.177.002.088.001.09.003.086v.003-.002.002l.003.084.003.092.004.082.003.067.001.003v.012l.005.09.005.069.001.02.005.08.007.089.006.078.008.092.006.075.01.088.007.076.01.092v.001l.008.069.011.095.009.067.013.097.009.061.014.096.009.06.002.013.015.097v-.004l.008.05.017.098.01.056.021.112.007.038.023.113.007.037.002.007-.002-.007.027.123-.002-.01-.005-.023.012.058.029.124.005.022.035.144.036.141a10.54 10.54 0 00.285.885c.046.126.095.248.146.369" />
        <path fill="url(#prefix__k)"
            d="M165.735 63.763c.014.196.022.398.023.607.012 4.197-2.942 9.329-6.586 11.44-.14.08-.28.156-.418.227l.019 6.586c.139-.075.277-.145.418-.226 6.793-3.935 12.303-13.51 12.281-21.337 0-.209-.012-.407-.02-.608l-5.717 3.311z" />
        <path fill="#1EE6AE"
            d="M75.674 141.126c1.723-.999 3.322-.6 3.833 1.112.611 2.078-.575 5.33-2.675 7.25-.374.343-.751.62-1.121.835-1.747 1.012-3.347.613-3.852-1.097-.617-2.069.59-5.339 2.732-7.296.36-.33.725-.597 1.083-.804" />
        <path fill="#FFF" stroke="#FFF" stroke-width="1.421"
            d="M79.922 133.962c.9.083 1.732.382 2.445.863h0l-1.03 3.018 2.535-1.34c.339.494.57.95.733 1.497.11.369.18.76.236 1.21h0l-2.042 2.394c.02.314.018.635-.003.966h0l2.002.25a18.446 18.446 0 01-.767 3.149h0l-2.292.928c-.22.476-.442.946-.684 1.395h0l.92 1.941c-.606.976-1.184 1.699-1.948 2.663h0l-1.696-.932c-.541.498-.746.681-.942.845h0l-.525 2.931c-1.518.884-1.828 1.048-2.761 1.32h0l-.404-2.452-2.221 2.85c-.903-.052-1.806-.31-2.478-.841h0l1.055-3.05-3.873 2.286 2.428-5.908c-.016-.349-.013-.701.001-1.056h0l-2.04-.235c.124-1 .422-2.11.8-3.183h0l2.298-.942c.194-.458.417-.93.675-1.394h0l-.9-1.949c.548-.918 1.245-1.774 1.895-2.618h0l1.7.935c.13-.124.265-.248.398-.367.178-.168.358-.33.54-.483h0l.524-2.91c.317-.2.609-.38.89-.543a9.526 9.526 0 011.92-.875h0l.395 2.512zm-3.892 7.778a5.65 5.65 0 00-.96.715c-.985.9-1.754 2.103-2.21 3.318-.433 1.16-.592 2.337-.32 3.25.168.569.494.952.955 1.083.534.152 1.184-.006 1.86-.398a5.81 5.81 0 00.998-.744c.965-.882 1.718-2.072 2.163-3.279.426-1.154.58-2.329.31-3.247-.17-.566-.497-.95-.957-1.084-.53-.154-1.174.001-1.839.386z" />
        <path fill="url(#prefix__l)"
            d="M82.022 143.19c.082-.644.111-1.245.041-1.819l2.03-2.38a5.709 5.709 0 00-.168-.787 4.239 4.239 0 00-.274-.69l-2.273 1.545a2.866 2.866 0 00-.87-.984l1-2.933a4.521 4.521 0 00-1.229-.414l-1.71 2.713c-.48.049-.96.11-1.446.265l-.378-2.406c-.337.15-.66.319-.997.515a21.59 21.59 0 00-.604.364l-.514 2.857c-.24.193-.48.404-.714.624-.26.235-.526.485-.755.72l-1.632-.897c-.442.57-.89 1.148-1.28 1.753l.893 1.933a14.18 14.18 0 00-.93 1.905l-2.274.932a16.2 16.2 0 00-.548 2.027l1.97.227c-.046.61-.07 1.214-.032 1.806l-2.03 2.392c.069.255.127.505.196.754.073.246.163.47.247.717l2.278-1.554c.252.408.546.714.854.998l-1.02 2.952c.381.2.816.322 1.26.384l1.741-2.731a4.655 4.655 0 001.42-.25l.394 2.39c.397-.164.801-.39 1.207-.625l.347-.202.514-2.869c.245-.19.516-.43.771-.663.24-.218.474-.437.698-.675l1.638.9c.489-.62.905-1.163 1.32-1.801l-.908-1.918c.354-.608.655-1.264.956-1.92l2.248-.911c.212-.665.383-1.342.512-2l-1.95-.245zm-17.623-3.924l22.521-13.044.073 25.955-22.52 13.044-.074-25.955z" />
        <path fill="#37118A"
            d="M54.138 218.145c2.033-.064 15.054 2.34 13.292 6.13-1.673 3.597-8.616 1.883-11.3 1.354-2.209-.435-7.688-.677-8.639-2.895-1.173-2.738 3.858-4.095 6.647-4.59"
            opacity=".369" />
        <path fill="#FFBFA1" d="M64.399 141.236l-2.645.207-.831-1.672 2.956-2.09z" />
        <path fill="#D8D8E3" d="M61.052 139.562l.702 1.881-5.314 6.652-11.818-1.346 8.254-.962z" />
        <g transform="translate(54.989 221.149)">
            <mask id="prefix__o" fill="#fff">
                <use xlink:href="#prefix__m" />
            </mask>
            <path fill="url(#prefix__n)"
                d="M6.532.227s1.63-.005 3.91 0c1.555.003 2.653 1.792 1.319 2.947L3.367 5.685S.843 6.37.02 4.359l.2-2.993L6.532.227z"
                mask="url(#prefix__o)" />
        </g>
        <path fill="url(#prefix__p)"
            d="M9.313 86.082s2.209-.002 4.382.002c1.483.003 2.633 2.254 1.258 2.809L6.95 91.287s-2.81.79-3.594-1.128l.186-2.915 5.77-1.162z"
            transform="translate(42.929 130.818)" />
        <path fill="url(#prefix__q)"
            d="M3.379 39.73c1.686.971 14.47 3.031 15.57 1.689l-.892 49.236c-.035.728-.33 1.658-1.708 2.028-2.298.617-4.109-.37-4.109-.37l-.16-17.761-2.06-15.767-.296 12.132L9.1 86.63c-.051.962-1.05 1.49-1.998 1.636-2.575.399-3.734-.847-3.734-.847L3.5 69.89s-.23-5.894-.622-10.927c-.326-4.184-.57-9.188-.39-11.685.147-2.048.89-7.547.89-7.547"
            transform="translate(42.929 130.818)" />
        <path fill="#633BBA"
            d="M50.08 190.776c-.346-1.19-1.419-6.177-1.931-7.585 1.907.872 2.351 1.068 4.242 1.492.043.662.44 3.98.572 4.624l-.31 12.428-.624 15.713c-.052.962-1.05 1.49-1.998 1.636-1.323.205-2.27-.025-2.88-.296.949-9.301 5.543-19.034 2.93-28.013" />
        <path fill="#4D24A5"
            d="M58.463 191.187c.297-4.765 1.225-9.452.997-14.245a1.893 1.893 0 00-.33-1c.005-1.09-.001-2.18-.025-3.27 1.436.028 2.49-.091 2.773-.435l-.892 49.236c-.035.727-.33 1.658-1.708 2.028a5.883 5.883 0 01-1.358.197c.381-6.075.241-12.233.344-18.228.081-4.746-.097-9.546.199-14.283" />
        <path fill="url(#prefix__r)"
            d="M.222 18.435c.542-2.958 3.786-3.71 3.786-3.71s4.16-1.295 7.403-.203c4.461 1.503 6.69 3.948 6.69 3.948l1.603 10.213-.88 15.306s-.488 1.803-4.025 1.813c-4.111.011-11.975-3.458-11.975-3.458s.25-2.182.124-4.579C2.823 35.37-.281 21.174.222 18.435"
            transform="translate(42.929 130.818)" />
        <path fill="#046"
            d="M59.239 150.128c.483-.394.98-.77 1.478-1.15.205.192.314.31.314.31l.41 2.618a31.504 31.504 0 00-2.202-1.778" />
        <path fill="url(#prefix__s)"
            d="M13.296 23.649c1.977 1.489 3.751 3.264 5.314 5.196.32.395.674.645 1.04.78l-.826 14.365s-.488 1.802-4.024 1.812c-.647.002-1.386-.083-2.172-.226.835-3.607.267-7.48.224-11.146-.036-3.146-.713-7.555.444-10.781"
            transform="translate(42.929 130.818)" />
        <path fill="#FFBFA1" d="M55.924 140.548l-.336 5.361c0 1.609-5.467 1.01-5.467-.599l.427-4.761h5.376z" />
        <path fill="#FFF"
            d="M50.121 144.178c.494 1.63 3.873 1.931 5.673 1.256l.646.678c-1.106 1.577-4.872 1.827-6.514.055-.382-.412-.44-1.032-.209-1.545l.404-.445z" />
        <path fill="#FFBFA1"
            d="M57.309 140.408c.15 2.475-1.493 3.66-3.832 3.804 0 0-4.416-1.085-4.565-3.517l-.763-4.475 8.78-2.047.38 6.235z" />
        <path fill="#2D3B4F"
            d="M54.702 131.232c1.977.727 5.133 2.5 2.334 4.722 0 0-1.18.371-1.064 2.267.115 1.895-1.76 3.917-3.17 5.178-1.025.917-2.96-.384-2.96-.384s-3.056-3.081-1.966-8.725c.663-3.438 5.433-3.57 6.826-3.058" />
        <path fill="#FFBFA1"
            d="M56.246 138.3l.125 2.062c-.835.448-1.61-.685-1.542-1.76.093-1.459 1.417-.302 1.417-.302" />
        <path fill="url(#prefix__t)"
            d="M21.47 25.065c1.32 2.118 2.78 3.957 3.776 5.13l.036-.116c.037.013.833.19 9.93-4.255l.517 2.61s-5.57 6.6-12.163 8.007l-.33.067-.734-.686-9.206-12.173s.53-3.446 3.674-5.489c1.502-.975 2.259 3.308 4.5 6.905z"
            transform="translate(42.929 130.818)" />
        <path fill="#FFBFA1" d="M78.658 159.252l4.131-2.61 1.558-2.944-2.538 1.149-3.667 1.795z" />
        <path fill="#FFBFA1"
            d="M81.244 155.174l1.545-1.797s-.367-.687-1.545.392c-.86.787-1.358.848-1.972 1.405-.614.557-1.23 1.172-.922 2.09.308.917 2.894-2.09 2.894-2.09m-13.495-18.021l-1.665.26-2.205.268-1.029 2.633 1.55.922 2.62-.66s-.178-.682-1.158-.585l-1.257-.042.034-.854 1.954-1.115 1.156-.827z" />
        <g>
            <path fill="#37118A"
                d="M182.621 176.592c-2.408-1.15-6.179 1.427-8.57 2.271-2.513.887-5.374.782-7.1 2.919-4.616 5.713 7.902 5.789 10.673 5.37 2.823-.427 13.649-2.11 13-7.195-.36-2.824-6.274-3.719-8.003-3.365"
                opacity=".369" />
            <path fill="url(#prefix__u)"
                d="M30.375 89.428s-1.629.163-3.906.402c-1.553.162-2.467 2.062-1.017 3.079l8.643 1.647s2.592.424 3.208-1.669l-.506-2.97-6.422-.49z"
                transform="translate(142.173 91.749)" />
            <path fill="#1BAC89"
                d="M185.997 124.032l-1.047 5.6s6.992-1.013 6.715-3.487c-1.146-10.247-5.043-18.69-5.043-18.69l-.625 16.577z" />
            <path fill="#1AAA86"
                d="M186.261 117.025l-.264 7.006-1.047 5.602s4.175-.61 5.941-2.03c-.96-3.72-2.594-7.282-4.63-10.578" />
            <path fill="url(#prefix__v)"
                d="M42.75 83.641s-1.926-.053-3.821-.098c-1.294-.032-2.356 2.201-1.172 2.79l6.916 2.589s2.965.68 3.7-1.227l-.789-4.082-4.834.028z"
                transform="translate(142.173 91.749)" />
            <path fill="#3D3B48"
                d="M186.588 130.622c-1.586 1.142-13.143 6.357-14.38 5.128l-1.131 26.792 2.016 18.676c.108.724.499 1.623 1.913 1.851 2.36.38 4.068-.792 4.068-.792l-1.101-19.953 2.928-11.829 1.344 10.243 1.737 15.15c.15.956 1.2 1.38 2.163 1.43 2.614.133 3.645-1.23 3.645-1.23l-1.43-17.014s-.183-4.065-.305-9.134c-.102-4.215.629-9.393.194-11.87-.357-2.03-1.66-7.448-1.66-7.448" />
            <path fill="#1D1D1B"
                d="M184.491 166.119c-.54-5.702-2.474-11.667-.949-17.251-1.245.722-2.02.788-2.64 1.627l1.343 10.243 1.737 15.15c.15.956 1.2 1.38 2.163 1.43.402.02.753-.005 1.082-.046-1.79-3.145-2.363-7.228-2.736-11.152" />
            <path fill="#1D1D1B"
                d="M173.889 182.629c1.31-9.18-.71-18.003-.11-27.262.482-7.468 5.601-11.696 11.707-15.136.992-.559 1.997-.628 2.898-.39-.01-.677-.049-1.279-.135-1.77-.357-2.03-1.66-7.45-1.66-7.45-1.587 1.144-13.144 6.358-14.38 5.13l-1.132 26.79 2.016 18.678c.072.475.271 1.023.796 1.41" />
            <path fill="url(#prefix__w)"
                d="M44.903 16.805c-.844-2.9-3.11-2.995-3.11-2.995s-4.297-.884-7.418.556c-6.626 3.057-6.414 4.011-8.087 5.492-1.94 1.718 1.333 9.157 1.889 12.19.827 4.513.222 18.353.222 18.353s1.943 2.117 5.495 2.119c7.91.003 13.117-3.944 13.117-3.944s-1.696-9.446-1.814-11.854c-.119-2.407.486-17.232-.294-19.917"
                transform="translate(142.173 91.749)" />
            <path fill="url(#prefix__x)"
                d="M31.776 40.133c-.721-7.276-2.225-13.54-5.041-20.273-.047-.112-.065-.217-.1-.327a9.34 9.34 0 01-.347.325c-1.94 1.718 1.333 9.157 1.889 12.19.827 4.513.223 18.352.223 18.352s1.942 2.117 5.494 2.12c.534 0 1.053-.021 1.562-.054-3.17-3.135-3.265-8.143-3.68-12.333"
                transform="translate(142.173 91.749)" />
            <path fill="#F8C4B8"
                d="M174.706 102.004l1.491 5.033c-.006 1.615 4.674.725 4.68-.891l-.41-4.784-5.761.642z" />
            <path fill="#FFF"
                d="M175.517 105.491l-.066 1.688c-.006 1.615 5.795.36 5.801-1.255l-.495-1.187c-1.743.68-3.335.974-5.24.754" />
            <path fill="#31CFA9"
                d="M180.927 104.659c-.502 1.636-3.818 1.896-5.622 1.21l-1.079 1.356c1.105 1.589 5.188 1.556 6.844-.218.385-.412.446-1.035.216-1.55l-.359-.798z" />
            <path fill="#F8C4B8"
                d="M173.678 101.195c-.161 2.486 1.484 3.682 3.834 3.835 0 0 4.44-1.072 4.598-3.515l.783-4.49-8.81-2.09-.405 6.26z" />
            <path fill="#45393F"
                d="M176.33 91.989c-1.988.722-5.165 2.49-2.363 4.733 0 0 1.184.377 1.06 2.282-.122 1.903 1.754 3.94 3.165 5.212 1.026.925 2.974-.374 2.974-.374s3.083-3.083 2.01-8.755c-.654-3.456-5.445-3.606-6.846-3.098" />
            <path fill="#F8C4B8"
                d="M174.753 99.082l-.134 2.07c.837.453 1.62-.681 1.556-1.761-.088-1.466-1.422-.31-1.422-.31m-23.034 15.198l-3.354-1.375-6.012-2.022s-.442.41.26 1.066l2.438 1.013s-.513 1.293-.177 2.619l1.357 1.415s.298-.105.428-.59c0 0 2.191.698 2.742.265l2.62.68-.3-3.071z" />
            <path fill="url(#prefix__y)"
                d="M27.648 18.72c-.791.558-2.661 2.466-7.314 5.831-.731.529-1.71.538-2.572.274L9.23 22.206s-1.49.78-1.557 2.27c-.063 1.385.2 1.612.2 1.612l9.743 5.049c.816.423 1.76.503 2.632.218 2.911-.95 9.266-3.72 11.475-4.637 3.327-1.38 2.991-7.672-.376-8.74-.793-.251-2.151-.347-3.699.743"
                transform="translate(142.173 91.749)" />
            <path fill="#1AAA86"
                d="M161.237 119.808c-1.232-.013-7.709-2.829-10.502-3.942a4.091 4.091 0 01-.72-.374 2.27 2.27 0 00-.17.734c-.062 1.384.2 1.61.2 1.61l9.744 5.05c.816.423 1.76.503 2.632.218 2.911-.95 9.266-3.72 11.475-4.637.092-.037.17-.093.256-.138-1.1.29-7.436 1.538-12.915 1.479" />
        </g>
        <g opacity=".455">
            <path fill="#8851FF" fill-opacity=".787"
                d="M130.992 49.218a.644.644 0 01-.654-.643v-.025a.654.654 0 111.307 0 .666.666 0 01-.653.668m0-21.027a.654.654 0 01-.654-.655v-.052a.654.654 0 111.307 0v.052a.654.654 0 01-.653.655m0 2.634a.655.655 0 01-.654-.656v-.052c0-.361.293-.655.654-.655.36 0 .653.294.653.655v.052a.655.655 0 01-.653.656m0 2.633a.655.655 0 01-.654-.656v-.051a.654.654 0 111.307 0v.051a.655.655 0 01-.653.656m0 2.633a.655.655 0 01-.654-.655v-.052a.654.654 0 111.307 0v.052a.655.655 0 01-.653.655m0 2.633a.654.654 0 01-.654-.655v-.052a.654.654 0 111.307 0v.052a.654.654 0 01-.653.655m0 2.633a.654.654 0 01-.654-.655v-.052a.654.654 0 111.307 0v.052a.654.654 0 01-.653.655m0 2.633a.654.654 0 01-.654-.655v-.052a.654.654 0 011.307 0v.052a.654.654 0 01-.653.655m0 2.634a.655.655 0 01-.654-.656v-.051a.654.654 0 111.307 0v.051a.655.655 0 01-.653.656m0-21.078a.644.644 0 01-.654-.643v-.025a.663.663 0 011.222-.348.649.649 0 01-.117.828.64.64 0 01-.451.188m39.381-21.398a.655.655 0 01-.653-.656c0-.362.293-.68.653-.68.361 0 .654.268.654.63v.05a.655.655 0 01-.654.656m0 2.56a.655.655 0 01-.653-.656c0-.362.293-.68.653-.68.361 0 .654.268.654.63v.05a.654.654 0 01-.654.655m0 2.56a.655.655 0 01-.653-.655c0-.362.293-.681.653-.681.361 0 .654.269.654.63v.05a.655.655 0 01-.654.656m0 2.56a.655.655 0 01-.653-.656c0-.362.293-.68.653-.68.361 0 .654.268.654.63v.05a.654.654 0 01-.654.655m0 2.56a.654.654 0 01-.653-.655c0-.362.293-.68.653-.68.361 0 .654.268.654.63v.05a.654.654 0 01-.654.655m0 2.56a.655.655 0 01-.653-.656c0-.361.293-.68.653-.68.361 0 .654.268.654.63v.05a.655.655 0 01-.654.656m0 2.56a.655.655 0 01-.653-.656c0-.362.293-.68.653-.68.361 0 .654.268.654.63v.05a.654.654 0 01-.654.655m0 2.56a.655.655 0 01-.653-.656c0-.361.293-.68.653-.68.361 0 .654.269.654.63v.05a.655.655 0 01-.654.656m0 2.56a.655.655 0 01-.653-.656c0-.362.293-.68.653-.68.361 0 .654.268.654.63v.05a.655.655 0 01-.654.656m0 2.56a.655.655 0 01-.653-.656c0-.362.293-.68.653-.68.361 0 .654.268.654.63v.05a.654.654 0 01-.654.655m0 2.56a.655.655 0 01-.653-.655c0-.362.293-.68.653-.68.361 0 .654.267.654.63v.05a.654.654 0 01-.654.654m0 2.56a.654.654 0 01-.653-.655c0-.362.293-.68.653-.68.361 0 .654.268.654.63v.05a.654.654 0 01-.654.655m0 2.56a.655.655 0 01-.653-.656c0-.361.293-.68.653-.68.361 0 .654.269.654.63v.05a.655.655 0 01-.654.656m0 2.56a.655.655 0 01-.653-.656c0-.362.293-.68.653-.68.361 0 .654.268.654.63v.05a.655.655 0 01-.654.656m0 2.559a.654.654 0 01-.653-.655c0-.362.293-.68.653-.68.361 0 .654.268.654.63v.05a.654.654 0 01-.654.655m0 2.56a.654.654 0 01-.653-.655c0-.362.293-.681.653-.681.361 0 .654.268.654.63v.05a.655.655 0 01-.654.656m0 2.56a.655.655 0 01-.653-.656c0-.361.293-.68.653-.68.361 0 .654.268.654.63v.05a.654.654 0 01-.654.655m0 2.56a.654.654 0 01-.653-.655c0-.362.293-.68.653-.68.361 0 .654.268.654.63v.05a.654.654 0 01-.654.655M168.19 2.885a.656.656 0 01-.564-.306c-.187-.31-.11-.7.2-.887l.043-.026a.652.652 0 01.897.22.658.658 0 01-.22.9.685.685 0 01-.356.1m-2.188 1.331a.656.656 0 01-.564-.307c-.186-.31-.11-.699.2-.887l.043-.026a.652.652 0 01.897.222.657.657 0 01-.576.998m-2.189 1.333a.653.653 0 01-.563-.307c-.187-.31-.11-.7.199-.887l.043-.026a.652.652 0 01.897.22.657.657 0 01-.22.9.685.685 0 01-.356.1m-2.187 1.33a.65.65 0 01-.563-.307c-.187-.309-.11-.699.199-.886l.043-.027a.651.651 0 01.897.222.657.657 0 01-.576.998m-2.188 1.332a.653.653 0 01-.563-.307c-.187-.31-.11-.699.199-.886l.043-.027a.652.652 0 01.897.221.657.657 0 01-.22.9.682.682 0 01-.356.099m-2.188 1.332a.653.653 0 01-.563-.307c-.187-.31-.11-.7.199-.887l.043-.026a.652.652 0 01.897.221.657.657 0 01-.22.9.691.691 0 01-.356.099m-2.188 1.332a.655.655 0 01-.562-.306c-.187-.309-.111-.7.197-.888l.043-.025a.652.652 0 01.898.218c.187.31.09.713-.219.9a.677.677 0 01-.357.1m-2.188 1.332a.654.654 0 01-.562-.305c-.187-.31-.111-.7.197-.888l.043-.026a.656.656 0 01.679 1.119.674.674 0 01-.357.1m-2.188 1.332a.655.655 0 01-.562-.306c-.187-.309-.11-.699.197-.887l.043-.026a.656.656 0 01.679 1.119.684.684 0 01-.357.1m-2.187 1.331a.652.652 0 01-.563-.306c-.187-.31-.11-.7.199-.887l.043-.026a.655.655 0 01.676 1.12.68.68 0 01-.355.1m-2.188 1.331a.654.654 0 01-.563-.306c-.187-.31-.11-.7.199-.888l.043-.025a.65.65 0 01.897.22.657.657 0 01-.22.9.684.684 0 01-.356.099m-2.188 1.332a.653.653 0 01-.563-.307c-.187-.31-.11-.7.199-.887l.043-.026a.652.652 0 01.897.221.657.657 0 01-.22.9.684.684 0 01-.356.099m-2.188 1.331a.654.654 0 01-.563-.306c-.187-.31-.11-.7.2-.887l.042-.026a.651.651 0 01.897.22.657.657 0 01-.22.9.683.683 0 01-.356.1m-2.188 1.331a.653.653 0 01-.563-.307c-.187-.309-.11-.7.2-.887l.042-.026a.653.653 0 01.897.221.657.657 0 01-.22.9.683.683 0 01-.356.1m-2.188 1.33a.652.652 0 01-.563-.306c-.187-.31-.11-.7.2-.887l.042-.026a.653.653 0 01.897.22.658.658 0 01-.576.999m-2.188 1.332a.654.654 0 01-.563-.306c-.186-.31-.11-.7.2-.887l.042-.026a.651.651 0 01.897.22.656.656 0 01-.22.9.68.68 0 01-.356.1m-2.188 1.33a.65.65 0 01-.562-.307c-.187-.31-.11-.699.199-.887l.042-.026a.655.655 0 01.677 1.122.687.687 0 01-.356.098" />
            <g transform="translate(169.559 .095)">
                <mask id="prefix__A" fill="#fff">
                    <use xlink:href="#prefix__z" />
                </mask>
                <path fill="#8851FF" fill-opacity=".787"
                    d="M.814 1.48a.652.652 0 01-.57-.323.646.646 0 01.211-.893L.477.252a.653.653 0 01.99.56.665.665 0 01-.653.669"
                    mask="url(#prefix__A)" />
            </g>
        </g>
        <g fill="#1BFDBF" fill-opacity=".552">
            <path
                d="M133.478 155.749a.65.65 0 01-.58-.343.645.645 0 01.257-.88l.022-.012a.655.655 0 11.301 1.235m11.343-6.082a.655.655 0 01-.31-1.232l.044-.024a.654.654 0 11.619 1.154l-.044.024a.654.654 0 01-.31.078m-2.274 1.221a.656.656 0 01-.31-1.232l.044-.024a.652.652 0 01.885.266.658.658 0 01-.265.888l-.045.024a.654.654 0 01-.31.078m-2.276 1.221a.657.657 0 01-.31-1.232l.045-.024a.651.651 0 01.885.266.658.658 0 01-.265.888l-.045.023a.642.642 0 01-.31.08m-2.275 1.22a.656.656 0 01-.306-1.235l.045-.024a.655.655 0 01.609 1.159l-.044.023a.644.644 0 01-.304.077m-2.277 1.22a.657.657 0 01-.31-1.232l.045-.024a.652.652 0 01.885.266.657.657 0 01-.266.888l-.044.024a.655.655 0 01-.31.079m11.395-6.115a.65.65 0 01-.58-.342.647.647 0 01.153-.811.638.638 0 01.434-.171c.36 0 .652.281.652.642 0 .243-.132.49-.345.604a.67.67 0 01-.314.078m.006-23.933a.654.654 0 01-.653-.654v-.052c0-.362.293-.656.653-.656.361 0 .654.294.654.656v.052a.655.655 0 01-.654.655m0 2.662a.655.655 0 01-.653-.656v-.052a.654.654 0 111.307 0v.052a.655.655 0 01-.654.656m0 2.662a.655.655 0 01-.653-.656v-.052a.654.654 0 111.307 0v.052a.655.655 0 01-.654.656m0 2.662a.654.654 0 01-.653-.655v-.053c0-.361.293-.655.653-.655.361 0 .654.294.654.655v.053a.654.654 0 01-.654.655m0 2.662a.655.655 0 01-.653-.656v-.052c0-.361.293-.655.653-.655.361 0 .654.294.654.655v.052a.655.655 0 01-.654.656m0 2.661a.654.654 0 01-.653-.654v-.053a.654.654 0 111.307 0v.053a.654.654 0 01-.654.654m0 2.663a.655.655 0 01-.653-.656v-.052a.654.654 0 111.307 0v.052a.655.655 0 01-.654.656m0 2.662a.654.654 0 01-.653-.655v-.052c0-.362.293-.656.653-.656.361 0 .654.294.654.656v.052a.654.654 0 01-.654.655m0 2.662a.655.655 0 01-.653-.656v-.052a.654.654 0 111.307 0v.052a.655.655 0 01-.654.656m0-23.97a.645.645 0 01-.653-.643v-.025c0-.362.293-.656.653-.656.361 0 .654.294.654.656a.666.666 0 01-.654.668" />
        </g>
        <path fill="#FFF"
            d="M38.656 81.844a.653.653 0 01-.358-1.201l.021-.013a.652.652 0 01.9.211.658.658 0 01-.563 1.003" />
        <path fill="url(#prefix__B)" d="M29.471 78.928l15.058-8.721.049 17.354-15.057 8.721z" />
        <path fill="url(#prefix__C)" d="M43.195 47.78l14.339-8.305.047 16.526-14.339 8.305z" />
        <path fill="#CBD0EF" d="M18.037 55.672l11.397-6.602.037 13.136-11.397 6.601z" opacity=".299" />
        <g>
            <path fill="url(#prefix__D)"
                d="M2.188 9.21c1.21-.701 2.192-.139 2.196 1.251.004 1.395-.972 3.092-2.182 3.793-1.206.699-2.19.136-2.193-1.258-.004-1.39.973-3.088 2.179-3.786"
                transform="translate(118.555 6.396)" />
            <path fill="url(#prefix__E)"
                d="M9.704 4.856c1.21-.7 2.193-.139 2.197 1.252.004 1.394-.973 3.091-2.183 3.792-1.206.699-2.189.137-2.193-1.258-.004-1.39.973-3.087 2.18-3.786"
                transform="translate(118.555 6.396)" />
            <path fill="url(#prefix__F)"
                d="M17.22.502c1.21-.7 2.194-.138 2.198 1.252.004 1.394-.973 3.092-2.183 3.793-1.21.7-2.192.138-2.197-1.256-.004-1.391.973-3.088 2.183-3.789"
                transform="translate(118.555 6.396)" />
        </g>
        <g>
            <path fill="url(#prefix__G)"
                d="M2.35 17.726c1.206-.699 2.189-.137 2.193 1.257.004 1.395-.973 3.092-2.179 3.791-1.21.7-2.193.139-2.197-1.256-.004-1.394.973-3.092 2.183-3.792"
                transform="translate(7.754 114.529)" />
            <path fill="url(#prefix__H)"
                d="M2.325 9.065c1.206-.699 2.19-.137 2.194 1.253.004 1.395-.973 3.092-2.18 3.79-1.209.702-2.192.14-2.196-1.255-.004-1.39.973-3.088 2.182-3.788M2.3.4C3.508-.3 4.49.263 4.495 1.653c.004 1.395-.973 3.092-2.18 3.79-1.209.702-2.191.14-2.196-1.255C.114 2.798 1.091 1.1 2.301.4"
                transform="translate(7.754 114.529)" />
        </g>
    </g>
</svg>