<svg width="900" height="148" xmlns="http://www.w3.org/2000/svg" version="1.1">

 <g>
  <title>Layer 1</title>
  <path stroke="null" id="svg_1" stroke-linecap="round" fill="#3F51B5" d="m0,73.86465l21.5,-15.3c21.5,-15.4 64.5,-46 107.3,-51.5c42.9,-5.5 85.5,14.1 128.4,14.8c42.8,0.7 85.8,-17.7 128.6,-21.2c42.9,-3.5 85.5,7.9 128.4,9.2c42.8,1.3 85.8,-7.3 128.6,-8c42.9,-0.7 85.5,6.7 128.4,20.2c42.8,13.5 85.8,33.1 107.3,43l21.5,9.8l0,73l-21.5,0c-21.5,0 -64.5,0 -107.3,0c-42.9,0 -85.5,0 -128.4,0c-42.8,0 -85.8,0 -128.6,0c-42.9,0 -85.5,0 -128.4,0c-42.8,0 -85.8,0 -128.6,0c-42.9,0 -85.5,0 -128.4,0c-42.8,0 -85.8,0 -107.3,0l-21.5,0l0,-74z"/>
 </g>
</svg>